<?xml version="1.0" encoding="UTF-8"?>
<svg id="Layer_1" data-name="Layer 1" xmlns="http://www.w3.org/2000/svg" viewBox="0 0 600 600">
  <defs>
    <style>
      .cls-1 {
        fill: #131313;
      }
    </style>
  </defs>
  <path class="cls-1" d="M300,600C134.58,600,0,465.42,0,300S134.58,0,300,0s300,134.58,300,300-134.58,300-300,300ZM300,20.97C146.14,20.97,20.97,146.14,20.97,300s125.17,279.03,279.03,279.03,279.03-125.17,279.03-279.03S453.86,20.97,300,20.97Z"/>
  <path class="cls-1" d="M483.36,289.91L200.72,126.78c-3.7-2.14-8.33.54-8.33,4.81v326.33c0,4.28,4.63,6.95,8.33,4.81l63.69-36.75c1.42-.79,2.36-2.15,2.62-3.72v-44.75c0-4.3,4.66-6.99,8.39-4.84l38,21.97c1.62.94,3.62.94,5.24,0l164.7-95.04c3.72-2.15,3.72-7.55,0-9.7ZM333.65,299.61l-58.08,33.5c-3.73,2.15-8.39-.54-8.39-4.84v-67.06c0-4.3,4.66-6.99,8.39-4.84l58.08,33.55c3.73,2.16,3.73,7.54,0,9.7Z"/>
</svg>